<?xml version="1.0" standalone="no"?>
<!DOCTYPE svg PUBLIC "-//W3C//DTD SVG 20010904//EN"
 "http://www.w3.org/TR/2001/REC-SVG-20010904/DTD/svg10.dtd">
<svg version="1.0" xmlns="http://www.w3.org/2000/svg"
 width="226.000000pt" height="223.000000pt" viewBox="0 0 226.000000 223.000000"
 preserveAspectRatio="xMidYMid meet">

<g transform="translate(0.000000,223.000000) scale(0.100000,-0.100000)"
fill="#000000" stroke="none">
<path d="M895 1791 c-97 -28 -184 -80 -260 -156 -311 -310 -184 -844 234 -985
140 -47 312 -35 451 31 l63 30 167 -166 c165 -164 167 -165 211 -165 86 0 149
69 134 149 -5 28 -31 61 -113 146 -59 60 -131 136 -161 167 l-55 58 27 57 c41
86 57 157 57 258 0 175 -50 297 -174 421 -87 87 -162 131 -271 159 -79 20
-233 18 -310 -4z m316 -160 c212 -80 330 -308 273 -526 -55 -215 -273 -359
-491 -325 -293 45 -459 357 -334 625 53 114 162 206 281 240 74 20 197 14 271
-14z"/>
<path d="M880 1508 c-94 -57 -153 -157 -166 -283 -6 -60 9 -145 25 -145 5 0
20 38 35 84 32 105 74 167 151 226 68 52 100 102 84 132 -15 28 -67 23 -129
-14z"/>
</g>
</svg>
